<svg xmlns:dc="http://purl.org/dc/elements/1.1/" xmlns:cc="http://creativecommons.org/ns#" xmlns:rdf="http://www.w3.org/1999/02/22-rdf-syntax-ns#" xmlns:svg="http://www.w3.org/2000/svg" xmlns="http://www.w3.org/2000/svg" role="img" aria-labelledby="title  desc" xml:space="preserve" enable-background="new 0 0 280 32.755" height="34.210526104448945" width="195.47368473887764" version="1.1"><rect id="backgroundrect" width="100%" height="100%" x="0" y="0" fill="none" stroke="none" class=""/><title id="title" lang="en-GB">BBC micro:bit</title>
   <desc id="desc" lang="en-GB">BBC micro:bit logo</desc><metadata id="metadata37"><rdf:rdf><cc:work rdf:about=""><dc:format>image/svg+xml</dc:format><dc:type rdf:resource="http://purl.org/dc/dcmitype/StillImage"/><dc:title/></cc:work></rdf:rdf></metadata><defs id="defs35"/><g class="currentLayer"><title>Layer 1</title><path style="fill:#ffffff" id="path21" d="M38.699474487304684,20.21968425130844 c-1.677,0 -3.035,-1.364 -3.035,-3.042 s1.357,-3.038 3.035,-3.038 c1.6840000000000002,0 3.039,1.36 3.039,3.038 S40.38347448730468,20.21968425130844 38.699474487304684,20.21968425130844 M16.38847448730469,14.142684251308442 c-1.677,0 -3.042,1.357 -3.042,3.035 s1.363,3.042 3.042,3.042 c1.6740000000000002,0 3.036,-1.364 3.036,-3.042 S18.061474487304693,14.142684251308442 16.38847448730469,14.142684251308442 M16.38547448730469,8.152684251308441 h22.576 c4.979,0 9.027,4.047 9.027,9.027 c0,4.979 -4.049,9.031 -9.027,9.031 h-22.576 c-4.977,0 -9.03,-4.053 -9.03,-9.031 C7.354474487304685,12.199684251308442 11.408474487304687,8.152684251308441 16.38547448730469,8.152684251308441 M38.961474487304685,32.228684251308444 c8.299,0 15.047,-6.75 15.047,-15.049 s-6.748,-15.051 -15.047,-15.051 h-22.576 c-8.299,0 -15.049,6.752 -15.049,15.051 s6.75,15.049 15.049,15.049 H38.961474487304685 M151.06047448730467,10.27568425130844 c0,-1.453 -1.195,-2.633 -2.662,-2.633 c-1.455,0 -2.6390000000000002,1.18 -2.6390000000000002,2.633 c0,1.471 1.184,2.672 2.6390000000000002,2.672 C149.86447448730468,12.947684251308441 151.06047448730467,11.745684251308441 151.06047448730467,10.27568425130844 zM84.2744744873047,15.720684251308441 c0,-4.764 -2.8930000000000002,-8.093 -7.031,-8.093 c-2.027,0 -3.814,0.8510000000000001 -5.223,2.47 c-1.467,-1.661 -3.152,-2.47 -5.127,-2.47 c-4.162,0 -7.066,3.329 -7.066,8.093 v10.466 h3.8120000000000003 V15.54268425130844 c0,-2.416 1.336,-4.104 3.254,-4.104 c1.617,0 3.25,1.409 3.25,4.104 v10.645 h3.848 V15.54268425130844 c0,-2.416 1.338,-4.104 3.252,-4.104 c1.863,0 3.217,1.727 3.217,4.104 v10.645 h3.814 V15.720684251308441 zM91.22747448730468,8.088684251308441 h-3.846 v18.099 h3.846 V8.088684251308441 zM91.79647448730469,2.9606842513084413 c0,-1.377 -1.096,-2.454 -2.492,-2.454 c-1.4,0 -2.453,1.054 -2.453,2.454 c0,1.3980000000000001 1.078,2.494 2.453,2.494 S91.79647448730469,4.337684251308441 91.79647448730469,2.9606842513084413 zM110.1244744873047,23.87468425130844 l0.5760000000000001,-0.521 l-2.8280000000000003,-2.6580000000000004 l-0.48800000000000004,0.455 c-1.252,1.149 -2.504,1.6860000000000002 -3.9450000000000003,1.6860000000000002 c-3.064,0 -5.557,-2.557 -5.557,-5.699 c0,-3.121 2.492,-5.66 5.557,-5.66 c1.432,0 2.646,0.521 3.949,1.693 l0.512,0.46 l2.748,-2.802 l-0.49000000000000005,-0.502 c-1.754,-1.7930000000000001 -4.016,-2.696 -6.719,-2.696 c-2.459,0 -4.869,1.022 -6.605,2.798 c-1.738,1.734 -2.6910000000000003,4.119 -2.6910000000000003,6.709 c0,2.596 0.9530000000000001,4.979 2.684,6.705 c1.771,1.811 4.117,2.811 6.615,2.811 C105.84347448730469,26.65068425130844 108.0894744873047,25.71668425130844 110.1244744873047,23.87468425130844 zM117.3744744873047,16.927684251308442 c0,-3.322 1.145,-4.686 4.217,-5.029 l0.6410000000000001,-0.07 V8.031684251308441 l-0.777,0.05800000000000001 c-5.6290000000000004,0.458 -8.143,3.247 -8.143,9.048 v9.051 h4.062 V16.927684251308442 L117.3744744873047,16.927684251308442 zM139.3724744873047,23.85068425130844 c1.762,-1.7560000000000002 2.729,-4.146 2.729,-6.715 c0,-2.565 -0.9670000000000001,-4.9510000000000005 -2.723,-6.702 c-1.77,-1.8090000000000002 -4.105,-2.806 -6.5760000000000005,-2.806 c-2.492,0 -4.84,0.997 -6.613,2.806 c-1.7520000000000002,1.792 -2.721,4.174 -2.721,6.702 c0,2.5300000000000002 0.9690000000000001,4.916 2.721,6.707 c1.771,1.81 4.121,2.808 6.613,2.808 C135.2744744873047,26.65068425130844 137.61047448730469,25.65268425130844 139.3724744873047,23.85068425130844 zM138.1434744873047,17.13668425130844 c0,3.18 -2.361,5.665 -5.377,5.665 c-2.9450000000000003,0 -5.346,-2.541 -5.346,-5.665 c0,-3.137 2.398,-5.695 5.346,-5.695 C135.72947448730469,11.43968425130844 138.1434744873047,13.999684251308441 138.1434744873047,17.13668425130844 zM151.06047448730467,23.55468425130844 c0,-1.468 -1.195,-2.6670000000000003 -2.662,-2.6670000000000003 c-1.455,0 -2.6390000000000002,1.199 -2.6390000000000002,2.6670000000000003 c0,1.453 1.184,2.632 2.6390000000000002,2.632 C149.86447448730468,26.186684251308442 151.06047448730467,25.00768425130844 151.06047448730467,23.55468425130844 zM170.56747448730468,23.85068425130844 c1.7600000000000002,-1.7560000000000002 2.73,-4.146 2.73,-6.715 c0,-2.528 -0.973,-4.911 -2.729,-6.702 c-1.746,-1.787 -4.08,-2.77 -6.574,-2.77 c-2.035,0 -3.84,0.5720000000000001 -5.484,1.7440000000000002 V-0.5263157486915588 h-3.816 l0.008000000000000002,15.582 c-0.037000000000000005,0.41100000000000003 -0.037000000000000005,0.8210000000000001 -0.037000000000000005,1.198 c0,6.119 3.8360000000000003,10.396 9.33,10.396 C166.4704744873047,26.65068425130844 168.8024744873047,25.65268425130844 170.56747448730468,23.85068425130844 zM169.55447448730467,17.17368425130844 c0,3.123 -2.494,5.66 -5.559,5.66 c-3.115,0 -5.557,-2.484 -5.557,-5.66 c0,-3.143 2.494,-5.698 5.557,-5.698 C167.06047448730467,11.475684251308442 169.55447448730467,14.031684251308441 169.55447448730467,17.17368425130844 zM180.4354744873047,8.088684251308441 H176.5894744873047 v18.099 h3.846 V8.088684251308441 zM181.0074744873047,2.9606842513084413 c0,-1.377 -1.098,-2.454 -2.492,-2.454 c-1.4,0 -2.457,1.054 -2.457,2.454 c0,1.3980000000000001 1.076,2.494 2.457,2.494 C179.88847448730468,5.454684251308441 181.0074744873047,4.337684251308441 181.0074744873047,2.9606842513084413 zM194.8374744873047,22.71968425130844 l-0.6190000000000001,-0.08900000000000002 c-2.855,-0.40900000000000003 -4.133,-2.104 -4.133,-5.495 v-5.126 h4.752 V8.335684251308441 h-4.752 V4.329684251308441 h-3.887 v4.006 h-1.6620000000000001 v3.6740000000000004 h1.6620000000000001 v4.525 c0,6.215 2.113,8.932 7.783,10.029 l0.8550000000000001,0.16400000000000003 V22.71968425130844 L194.8374744873047,22.71968425130844 z" fill="#2B2523" class=""/></g></svg>